<?xml version="1.0" encoding="UTF-8"?>
<svg id="Layer_2" data-name="Layer 2" xmlns="http://www.w3.org/2000/svg" viewBox="0 0 353.01 1331.07">
  <defs>
    <style>
      .cls-1 {
        fill: #363;
      }
    </style>
  </defs>
  <g id="artwork">
    <polygon class="cls-1" points="183.66 624.52 188.33 674.52 197.66 699.18 165 699.18 165 656.52 183.66 624.52"/>
    <polygon class="cls-1" points="160.26 358.54 209.79 350.26 233.71 339.17 236.08 371.75 193.53 374.84 160.26 358.54"/>
    <polygon class="cls-1" points="64.44 1331.07 51.69 1282.49 38.47 1259.67 70.7 1254.36 77.65 1296.45 64.44 1331.07"/>
    <polygon class="cls-1" points="202.5 958.9 210.5 991.57 223.83 1018.23 197.83 1023.57 184.5 980.9 202.5 958.9"/>
    <polygon class="cls-1" points="2.78 183.41 27.55 206.16 53.43 220.95 34.76 239.81 0 211.7 2.78 183.41"/>
    <polygon class="cls-1" points="241.17 731.48 257.17 755.15 230.5 763.81 243.83 790.48 223.83 783.81 229.17 739.81 241.17 731.48"/>
    <polygon class="cls-1" points="122.76 187.8 97.42 200.99 91.85 173.51 63.84 183.71 72.74 164.6 115.85 174.92 122.76 187.8"/>
    <polygon class="cls-1" points="314 640.53 324.66 654.42 319.33 686.9 310 701.86 337.33 701.86 353.01 658.53 338 645.8 314 640.53"/>
    <polygon class="cls-1" points="141.36 0 145.15 17.11 126.59 44.29 111.81 53.9 136.58 65.45 169.11 32.8 160.88 14.93 141.36 0"/>
    <polygon class="cls-1" points="55.33 1128.15 68 1156.15 88 1158.81 102.66 1148.15 85.33 1176.81 51.33 1176.81 51.33 1160.81 55.33 1128.15"/>
    <polygon class="cls-1" points="107.49 500.99 76.8 502.76 67.14 520.47 71.83 537.99 51.29 511.52 63.5 479.79 78.43 485.53 107.49 500.99"/>
  </g>
</svg>